<svg xmlns="http://www.w3.org/2000/svg" width="691" height="228" fill="none"><path fill="#7E5438" fill-rule="evenodd" d="M299.471 0h63.347a101.238 101.238 0 0 1 11.189 11.017c.23 21.46.23 42.92 0 64.38a83.285 83.285 0 0 1-11.189 10.844c-21.114.23-42.231.23-63.347 0a83.24 83.24 0 0 1-11.189-10.845c-.229-21.46-.229-42.92 0-64.38A101.325 101.325 0 0 1 299.471 0Zm4.476 5.508c18.074-.4 36.207-.458 54.395-.172-.802 1.033-1.607 2.066-2.41 3.099-16.525.23-33.05.23-49.575 0a30.986 30.986 0 0 0-2.41-2.927Zm-3.443.345c1.392.96 2.252 2.223 2.582 3.787l-5.852 5.852a18.91 18.91 0 0 1-3.271-2.754l6.541-6.885Zm60.937 0a97.008 97.008 0 0 1 6.885 6.885 56.923 56.923 0 0 1-3.959 3.443 153.823 153.823 0 0 1-6.025-6.197 1332.56 1332.56 0 0 1 3.099-4.131Zm-53.019 5.508a1001.27 1001.27 0 0 1 45.445-.172c-1.147 1.377-2.297 2.754-3.443 4.131-12.852.23-25.706.23-38.559 0a58.356 58.356 0 0 0-3.443-3.959Zm-3.442.344a38.942 38.942 0 0 1 4.82 5.68 79.162 79.162 0 0 1-4.476 4.304 107.34 107.34 0 0 1-5.853-4.303 127.687 127.687 0 0 0 5.509-5.68Zm51.297.689a42.4 42.4 0 0 1 5.852 5.336 28.62 28.62 0 0 1-5.164 3.96 78.144 78.144 0 0 1-4.475-4.304 115.289 115.289 0 0 1 3.787-4.992Zm-63.003 3.787a24.993 24.993 0 0 1 2.927 2.066c.286 16.64.229 33.28-.172 49.92a22.341 22.341 0 0 1-2.582 2.065c-.173-18.017-.23-36.034-.173-54.051Zm75.397 0c.402 17.959.457 35.976.172 54.051a22.427 22.427 0 0 1-2.582-2.066 1205.742 1205.742 0 0 1-.172-49.92 23.647 23.647 0 0 0 2.582-2.065Zm-54.396 2.066a826.97 826.97 0 0 1 33.739.344 81.114 81.114 0 0 1-3.098 3.959c-9.182.23-18.362.23-27.542 0a31.43 31.43 0 0 1-3.099-4.303Zm-3.098 1.377a.982.982 0 0 1 .86.344 25.962 25.962 0 0 0 2.927 3.96 37.179 37.179 0 0 1-3.099 2.925 29.895 29.895 0 0 1-4.131-3.442 4994.89 4994.89 0 0 0 3.443-3.787Zm39.591 0a67.049 67.049 0 0 1 4.132 3.959l-4.476 3.27a37.323 37.323 0 0 1-3.098-2.926 59.755 59.755 0 0 0 3.442-4.303Zm-51.641 1.033a60.118 60.118 0 0 1 4.304 3.442 1062.93 1062.93 0 0 1 0 38.215l-4.132 3.443c-.172-15.033-.229-30.067-.172-45.1Zm63.691 0c.399 14.975.458 30.008.172 45.1l-4.131-3.443a1053.729 1053.729 0 0 1 0-38.215 58.088 58.088 0 0 0 3.959-3.442Zm-45.444 4.82c9.181-.058 18.363 0 27.542.171 1.318 1.32 2.64 2.64 3.959 3.96.23 9.065.23 18.132 0 27.197-1.319 1.32-2.641 2.64-3.959 3.96-9.182.23-18.362.23-27.542 0l-3.96-3.96a538.452 538.452 0 0 1 0-27.197 66.803 66.803 0 0 0 3.96-4.132Zm-11.017.688a60.102 60.102 0 0 1 4.303 3.443c.23 9.065.23 18.132 0 27.197a51.223 51.223 0 0 1-3.959 3.099c-.344-11.244-.459-22.49-.344-33.74Zm48.887.344c.458 5.446.688 11.012.688 16.697-.058 5.566-.113 11.132-.172 16.698a66.12 66.12 0 0 1-3.615-2.754 377.449 377.449 0 0 1-.172-27.887c1.212-.801 2.3-1.72 3.271-2.754Zm-43.723 33.05a13.76 13.76 0 0 1 3.443 2.927l-3.615 4.303-3.959-3.959a40.93 40.93 0 0 0 4.131-3.27Zm38.559 0a16.219 16.219 0 0 1 4.475 3.443 29.417 29.417 0 0 1-3.787 3.787 61.852 61.852 0 0 0-3.442-4.303 32.793 32.793 0 0 0 2.754-2.926Zm-32.706 4.132c9.181-.058 18.363 0 27.542.172a43.178 43.178 0 0 1 3.098 4.131c-11.247.23-22.492.23-33.739 0a84.804 84.804 0 0 1 3.099-4.303Zm-12.394 1.033a28.231 28.231 0 0 1 4.82 4.303 57.71 57.71 0 0 1-4.648 5.68l-5.681-5.68a106.154 106.154 0 0 0 5.509-4.303Zm51.641 0a37.423 37.423 0 0 1 6.197 4.303l-5.681 5.68a57.557 57.557 0 0 1-4.647-5.68 73.24 73.24 0 0 0 4.131-4.303Zm-44.756 5.852c12.855-.114 25.707 0 38.559.345.967 1.369 2 2.688 3.098 3.959-14.917.23-29.837.23-44.755 0a18.592 18.592 0 0 0 3.098-4.304Zm-15.148.345a50.655 50.655 0 0 1 6.369 5.852c.23.345.23.689 0 1.033l-2.41 2.754-7.057-7.057a12.508 12.508 0 0 0 3.098-2.582Zm68.167 0c1.242.853 2.506 1.714 3.787 2.582l-7.058 7.057c-.802-.918-1.608-1.836-2.41-2.754-.231-.344-.231-.688 0-1.033a137.48 137.48 0 0 0 5.681-5.852Zm-58.871 7.23c16.64-.058 33.281 0 49.919.172a21.62 21.62 0 0 1 2.41 2.754c-18.133.23-36.263.23-54.395 0a24.066 24.066 0 0 0 2.066-2.927Z" clip-rule="evenodd"/><path fill="#3B2D26" fill-rule="evenodd" d="M150.42 101.537c5.814-.21 11.392.825 16.733 3.105a91.576 91.576 0 0 1 9.142-1.725c.226 6.902.456 13.802.69 20.7a8.909 8.909 0 0 1-3.45-.345 45.64 45.64 0 0 0-4.312-11.04c-4.8-6.201-11.067-8.443-18.803-6.727-5.619 1.709-9.472 5.331-11.557 10.867-3.147 10.512-3.378 21.092-.69 31.74 3.524 10.476 10.712 14.443 21.562 11.903 2.647-.661 4.889-1.984 6.728-3.968.172-5.864.23-11.729.172-17.595h-8.97v-3.105h27.945v3.105h-6.555v24.84a183.315 183.315 0 0 1-10.867-2.415c-8.117 3.378-16.455 4.01-25.013 1.898-13.991-5.035-21.007-15.04-21.045-30.015.612-18.491 10.042-28.899 28.29-31.223ZM282.901 164.327h-5.865c-5.399-.432-10.459-2.042-15.18-4.83.177 2.769-1.088 4.034-3.795 3.795v-21.39c1.285-.111 2.55.004 3.795.345.408 5.08 2.075 9.68 5.002 13.8 4.997 4.704 10.805 6.026 17.423 3.968 5.537-2.277 7.665-6.36 6.382-12.248-1.328-2.946-3.341-5.303-6.037-7.072a330.722 330.722 0 0 0-17.94-9.315c-7.972-5.397-9.984-12.47-6.038-21.218 2.704-3.797 6.327-6.27 10.868-7.417 8.806-2.029 17.316-1.167 25.53 2.587.319-.878.664-1.74 1.035-2.587a6.059 6.059 0 0 1 3.105-.518v18.285h-4.14c.006-8.327-4.019-13.444-12.075-15.352-3.549-.606-6.884-.031-10.005 1.725-4.119 4.052-4.521 8.479-1.208 13.282a29.552 29.552 0 0 0 6.038 4.658 197.443 197.443 0 0 1 16.905 8.97c7.757 6.474 8.965 14.006 3.622 22.597-4.8 4.877-10.608 7.522-17.422 7.935ZM425.852 164.327h-5.52c-13.662-1.528-22.804-8.773-27.427-21.735-2.567-9.755-1.301-18.954 3.795-27.6 8.801-11.139 20.244-15.337 34.327-12.592 15.398 4.306 23.219 14.484 23.46 30.532-1.028 18.276-10.571 28.74-28.635 31.395Zm-5.865-59.34c8.591-1.025 14.514 2.425 17.768 10.35 3.395 11.612 3.395 23.227 0 34.845-3.999 9.846-11.071 13.009-21.218 9.488-5.102-2.658-8.149-6.856-9.142-12.593-2.067-10.168-1.839-20.289.69-30.36 1.901-6.098 5.868-10.008 11.902-11.73ZM670.168 164.327h-5.865c-5.306-.522-10.309-2.133-15.007-4.83.048 2.772-1.277 4.036-3.968 3.795v-21.39h4.14c.11 4.931 1.549 9.416 4.313 13.455 4.215 4.665 9.446 6.447 15.697 5.348 6.617-1.454 9.55-5.537 8.798-12.248-1.36-3.774-3.83-6.591-7.418-8.452A361.488 361.488 0 0 1 652.228 130c-6.427-5.408-7.863-11.906-4.312-19.493 3.491-4.883 8.262-7.701 14.317-8.452 7.794-1.078 15.27.015 22.425 3.277.114-2.414 1.38-3.449 3.795-3.105v18.285h-3.795c-.838-11.132-6.821-16.25-17.94-15.352-5.448 1.072-8.035 4.35-7.762 9.832.786 3.666 2.797 6.483 6.037 8.453a282.789 282.789 0 0 0 16.56 8.625c8.756 5.112 11.344 12.414 7.762 21.907-2.297 3.675-5.461 6.378-9.487 8.108a40.044 40.044 0 0 1-9.66 2.242ZM.345 102.572c17.137-.115 34.272 0 51.405.345.266 7.004.496 14.019.69 21.045a8.907 8.907 0 0 1-3.45-.345 618.291 618.291 0 0 0-3.623-11.04c-2.59-5.407-6.902-7.707-12.937-6.9v54.51c2.533-.057 5.063 0 7.59.173 1.068.7 1.643 1.677 1.725 2.932H10.35v-3.105h9.315v-54.51c-5.73-.672-9.927 1.513-12.592 6.555a165.116 165.116 0 0 0-3.796 11.385 8.469 8.469 0 0 1-3.277.345c.02-7.132.136-14.262.345-21.39ZM82.8 102.572a31.47 31.47 0 0 1 6.555.345c7.776 19.058 15.596 38.09 23.46 57.098l4.485.345c.839.795 1.184 1.772 1.035 2.932h-25.53v-3.105c2.303.058 4.603 0 6.9-.172a266.035 266.035 0 0 1-7.245-18.803H72.105a314.75 314.75 0 0 1-6.9 18.63c2.06.287 4.13.459 6.21.518 1.146.625 1.606 1.602 1.38 2.932h-18.63v-3.105c2.343.208 4.585-.023 6.728-.69 7.308-18.984 14.61-37.959 21.907-56.925Zm-.69 12.765c2.866 7.326 5.74 14.686 8.625 22.08-5.746.403-11.496.46-17.25.173a871.743 871.743 0 0 0 8.625-22.253ZM224.596 164.327h-5.52c-6.998-.206-12.92-2.851-17.768-7.935-2.329-3.305-3.709-6.985-4.14-11.04-.172-13.224-.23-26.449-.172-39.675h-8.28v-3.105h28.635v3.105h-7.935c-.058 12.536 0 25.071.172 37.605-.146 6.007 1.866 11.125 6.038 15.353 6.224 3.164 12.319 2.934 18.285-.69 3.881-3.817 5.894-8.474 6.037-13.973.173-12.764.23-25.529.173-38.295h-7.935v-3.105h20.01v3.105h-7.935a880.358 880.358 0 0 1-.518 40.365c-1.408 11.357-7.79 17.451-19.147 18.285ZM333.737 102.572c12.66-.154 25.309.018 37.95.518 10.836 1.865 15.608 8.247 14.317 19.147-2.097 8.305-7.445 12.963-16.042 13.973-5.161.467-10.336.64-15.525.517v23.46c2.646-.057 5.292 0 7.935.173 1.325.52 2.015 1.498 2.07 2.932h-30.705v-3.105h7.935v-54.51h-7.935v-3.105Zm20.7 3.105a125.8 125.8 0 0 1 9.315.173c4.085.749 6.789 3.107 8.107 7.072 1.222 4.635 1.108 9.235-.345 13.8-1.345 3.634-3.933 5.762-7.762 6.383-3.102.172-6.207.229-9.315.172v-27.6ZM461.042 102.572a720.817 720.817 0 0 1 37.605.518c12.872 2.806 17.302 10.454 13.283 22.942-2.888 4.382-6.855 7.315-11.903 8.798a1718.542 1718.542 0 0 1 15.18 25.012 76.53 76.53 0 0 1 4.14.863c.614.736.846 1.599.69 2.587-5.754.115-11.505 0-17.25-.345-4.943-8.97-9.891-17.94-14.835-26.91a28.31 28.31 0 0 0-6.21-.345v24.495h7.935v3.105h-28.635v-3.105h7.935v-54.51h-7.935v-3.105Zm20.7 3.105c14.577-1.466 20.383 4.974 17.423 19.32-1.504 3.574-4.092 5.931-7.763 7.073-3.218.172-6.437.229-9.66.172v-26.565ZM522.452 102.572h51.405c.218 7.133.445 14.264.69 21.39a8.907 8.907 0 0 1-3.45-.345 234.28 234.28 0 0 0-3.967-11.73c-2.719-4.953-6.917-7.023-12.593-6.21v54.51c2.419-.057 4.834 0 7.245.173 1.304.553 1.994 1.531 2.07 2.932-10.467.058-20.931 0-31.395-.172-.459-.92-.459-1.84 0-2.76 3.102-.173 6.207-.23 9.315-.173v-54.51c-5.792-.778-9.991 1.407-12.592 6.555a164.708 164.708 0 0 0-3.795 11.385 8.471 8.471 0 0 1-3.278.345c-.013-7.132.1-14.262.345-21.39ZM612.842 164.327h-5.52c-4.44-.393-8.697-1.6-12.765-3.622-5.779-4.025-8.828-9.602-9.142-16.733a2107.076 2107.076 0 0 1-.173-38.295h-7.935v-3.105h28.635v3.105h-7.935c-.059 13.341 0 26.681.173 40.02 1.083 11.839 7.465 16.726 19.147 14.663 5.42-1.857 8.811-5.594 10.178-11.213.61-2.492.955-5.022 1.035-7.59.172-11.959.231-23.919.172-35.88h-8.28v-3.105h20.01v3.105h-7.935c.059 12.881 0 25.761-.172 38.64-.142 7.016-2.96 12.593-8.453 16.733-3.502 1.851-7.183 2.943-11.04 3.277Z" clip-rule="evenodd"/><path fill="#3B2D26" d="M418.276 187.247h8.894c2.384 4.435 4.575 8.955 6.753 13.495l.724 1.506 1.231 2.562.357.744a84.31 84.31 0 0 1 1.715 3.807c1.564-2.949 2.823-6.024 4.11-9.102l.686-1.633c.96-2.285 1.916-4.572 2.866-6.862l.382-.923a456.622 456.622 0 0 0 .952-2.309l.239-.584c.197-.432.197-.432.467-.701a59.038 59.038 0 0 1 2.266-.027l.688.001c.728.002 1.455.005 2.183.009l1.477.003c1.209.003 2.418.008 3.627.014v1.618h-4.043v27.508h3.234l.809.809v.809h-14.284v-1.618h4.043l-.27-22.384-2.981 6.961-.969 2.262-.41.957-1.061 2.479-.221.514-.826 1.929-.364.85-.339.792-.321.751-.597 1.394-.279.651-2.142 5.002h-1.348l-.254-.513c-2.081-4.198-2.081-4.198-4.243-8.353-2.089-3.923-4.034-7.923-6.013-11.901l-.27 18.609h3.234l.809.809v.809h-10.511v-1.618h4.043v-27.508h-4.043v-1.618ZM498.857 184.55h10.51v31.823h3.234c.539.809.539.809.539 1.618h-8.893l-.809-3.775-.724 1.011c-1.36 1.807-2.947 2.932-5.205 3.304-2.905.232-5.272-.255-7.535-2.152-2.483-2.465-3.303-5.367-3.329-8.771-.006-3.567.8-6.897 3.287-9.582 2.585-2.394 5.092-2.814 8.515-2.768 1.828.075 3.219.695 4.722 1.697l.269-10.787h-4.581v-1.618Zm-3.841 14.057c-2.233 3.672-2.445 8.563-1.634 12.72.46 1.634 1.084 3.227 2.51 4.237 1.2.55 2.287.672 3.554.287 1.95-.893 2.788-2.558 3.518-4.486.55-1.757.533-3.464.542-5.291l.017-.887c.014-2.935-.497-5.324-2.561-7.507-2.162-1.298-4.185-.737-5.946.927ZM396.447 187.516c1.307 1.22 1.919 2.25 1.987 4.062-.029 2.001-.67 3.472-2.04 4.928-2.256 2.068-2.256 2.068-3.72 2.068 2.231 4.037 5.006 8.398 8.354 11.596 1.097-2.879 1.636-5.566 1.887-8.63h-2.695v-1.348h7.546l-.27 1.348-2.695.27-.021.684c-.165 3.394-.898 6.496-2.404 9.564l.629.68.819.888.415.447c.603.655 1.145 1.288 1.64 2.03.589.215.589.215 1.247.321l.667.129.512.09.269 1.348c-1.194.04-2.387.07-3.581.089a82.24 82.24 0 0 0-1.216.033c-3.804.129-3.804.129-5.047-.937l-.666-.803-.467.267c-3.493 1.883-7.489 2.532-11.375 1.553a31.363 31.363 0 0 1-1.364-.471l-.585-.219c-2.074-.904-3.694-2.571-4.605-4.636-1.098-2.961-.939-5.794.338-8.702 1.302-2.29 3.432-3.979 5.93-4.782h.539l-.285-.8c-.972-2.775-1.798-5.2-.793-8.1.856-1.681 2.256-2.833 3.988-3.547 2.274-.602 4.989-.589 7.062.58Zm-5.862 2.074c-.684 1.265-.724 2.283-.4 3.653.41 1.354.874 2.673 1.411 3.982 1.727-.108 3.018-1.364 4.143-2.579.934-1.402 1.077-2.399.874-4.061-.247-.95-.746-1.409-1.514-1.99-1.682-.842-3.259-.216-4.514.995Zm-3.84 11.411-.506.809-.284.455c-1.401 3.03-1.376 7.68-.317 10.81.732 1.477 1.87 2.906 3.478 3.459 2.538.465 5.036.245 7.331-.97.473-.414.473-.414.808-.809l-.525-.596c-3.372-3.879-6.369-8.055-8.787-12.597l-.39-.561h-.808ZM620.94 192.64c.828.342 1.033.61 1.617 1.349.291.748.391 1.362.27 2.157-.556.826-.556.826-1.348 1.349-1.059.023-1.708-.309-2.577-.86-.868-.579-.868-.579-1.684-.354-.645.443-.862.757-1.129 1.483h.539c1.711 2.052 2.296 4.081 2.239 6.727-.26 2.588-1.616 4.382-3.494 6.084-2.448 1.941-5.474 1.884-8.447 1.921l-1.717.033c-.513.011-1.026.018-1.54.026-.768-.011-.768-.011-1.324.312-.068.787-.068.787 0 1.618.997.665 1.772.624 2.926.632l.639.012c.675.013 1.351.022 2.027.03 9.491.122 9.491.122 11.517 2.155 1.296 1.469 1.325 2.751 1.31 4.64-.168 1.603-.884 2.554-2.062 3.601-.755.548-1.464.9-2.326 1.252l-.816.34c-1.948.675-3.935.621-5.972.637l-.948.024c-2.928.021-5.682-.541-7.912-2.535-.819-1.189-1.059-2.356-.809-3.776.299-.758.662-1.458 1.078-2.157l-.505-.59c-1.091-1.445-1.352-2.753-1.112-4.534.545-1.676 1.425-2.725 3.007-3.534l.497-.242-.434-.356c-1.864-1.573-3.159-3.097-3.43-5.608-.035-2.88.605-4.682 2.575-6.787 2.084-2.013 4.516-2.496 7.319-2.453l.749.005c1.78.034 3.41.248 5.079.905l.247-.434c1.506-2.541 2.989-3.431 5.951-3.072Zm-14.014 4.585c-1.459 1.331-1.779 2.77-1.941 4.704a42.565 42.565 0 0 0-.029 2.021l.004.717c.038 2.017.103 4.01 1.579 5.537 1.248.681 2.229.743 3.621.506 1.145-.5 1.65-.989 2.106-2.124.914-2.74 1.187-7.004.05-9.743-.56-1.044-1.255-1.672-2.392-2.022-1.127-.204-1.942-.074-2.998.404Zm-4.312 23.193c-.566.851-.687 1.377-.656 2.393.225 1.104.866 1.779 1.734 2.462 2.998 1.706 7.293 1.215 10.511.539 1.334-.376 2.369-.784 3.402-1.719.453-.865.538-1.364.371-2.326-.942-.942-1.917-1.111-3.207-1.147a930.66 930.66 0 0 0-.812-.024l-.875-.022-.899-.023-1.882-.043c-.963-.022-1.926-.05-2.889-.078l-1.826-.041-.877-.028-.809-.014a146.21 146.21 0 0 0-.715-.017l-.571.088ZM589.308 195.877c2.037 1.226 2.863 2.853 3.443 5.099.278 1.436.26 2.851.24 4.309l-.003.967a610.105 610.105 0 0 1-.025 3.025l-.011 2.064a937.906 937.906 0 0 1-.04 5.032l.571-.019.743-.015.739-.019c.642.053.642.053 1.181.592v1.079h-11.858v-1.618l.91-.219c1.036-.228 1.036-.228 1.516-1.129.083-.611.083-.611.074-1.296l.008-.797-.001-.86.003-.888c.002-.621.002-1.242.001-1.863-.001-.946.005-1.892.012-2.837l.001-1.812.007-.852c-.012-1.943-.182-3.576-1.486-5.112-1.089-.568-1.997-.615-3.201-.404-1.346.686-2.35 1.555-2.914 2.984-.565 1.768-.715 3.386-.727 5.235l-.015.859c-.014.896-.023 1.791-.032 2.687l-.028 1.834c-.023 1.49-.042 2.98-.057 4.47l1.045-.017c1.044-.017 1.044-.017 1.65.287l.27 1.348h-12.128v-1.618l.512-.09.667-.129.664-.123c.679-.164.679-.164 1.122-1.006.089-.791.089-.791.086-1.701l.016-1.064.009-1.149.016-1.176c.014-1.03.025-2.061.035-3.092.011-1.052.024-2.104.038-3.156.026-2.064.048-4.128.069-6.192h-3.234v-1.618h8.894l.269 2.966.859-.741.526-.448c.394-.337.785-.677 1.176-1.019 2.372-1.721 5.716-1.959 8.388-.758ZM360.233 195.877c1.54.916 2.452 2.163 3.149 3.792.466 1.99.491 3.895.481 5.932l-.001.935c-.001.981-.005 1.962-.008 2.943l-.004 2.001a2660.19 2660.19 0 0 1-.013 4.893l.571-.028.743-.023.739-.028.642.079c.539.809.539.809.539 1.618h-11.858v-1.618l.91-.202c.971-.226.971-.226 1.303-.816.238-.671.283-1.19.287-1.901l.007-.781v-.838l.003-.869c.002-.607.002-1.213.001-1.82-.001-.924.005-1.848.012-2.771l.001-1.771.007-.832c-.012-1.924-.196-3.544-1.487-5.064-1.088-.568-1.997-.615-3.2-.404-1.561.796-2.527 1.851-3.121 3.493-.481 1.494-.511 2.929-.52 4.489l-.015.878c-.014.918-.024 1.836-.033 2.753l-.028 1.877a998.665 998.665 0 0 0-.056 4.579l1.044-.017c1.045-.017 1.045-.017 1.651.287v1.348h-11.858v-1.618l.512-.08.667-.122.663-.114c.609-.169.609-.169.884-.67.304-.806.314-1.477.325-2.339l.016-1.047.009-1.127.016-1.156c.014-1.013.025-2.026.035-3.038.01-1.034.024-2.068.038-3.102.026-2.028.048-4.056.069-6.083h-3.234v-1.618h8.894v3.506h.539l.199-.614c.384-.83.743-1.166 1.468-1.712l.601-.466c2.476-1.582 5.688-1.938 8.411-.714ZM109.968 188.865l.253-.793c.286-.825.286-.825.556-1.095h1.347v9.978h-1.886l-.238-.681c-1.172-3.219-2.442-5.649-5.59-7.224-2.472-.716-4.74-.642-7.108.354-2.49 1.378-3.823 3.657-4.631 6.325-1.273 5.533-1.273 12.155 1.47 17.237.989 1.507 2.356 2.738 4.098 3.289 2.926.508 5.648.296 8.203-1.279 2.193-1.634 3.341-4.405 4.065-6.963h1.887v10.248h-1.348c-.539-.54-.539-.54-.572-1.382l.033-.776-.674.326c-4.827 2.216-10.066 2.917-15.226 1.292-4.372-1.708-7.368-4.593-9.248-8.882-1.52-4.143-1.412-8.778.204-12.867 1.004-2.151 2.223-3.84 3.923-5.489l.47-.477c4.974-4.705 14.382-4.428 20.012-1.141ZM161.462 196.043c1.926 1.382 2.724 2.944 3.215 5.227.102 1.191.094 2.373.079 3.567l-.004 1.005c-.004 1.049-.015 2.099-.025 3.148l-.011 2.146c-.009 1.746-.022 3.491-.039 5.237l.57-.019.743-.015.739-.019c.643.053.643.053 1.182.592v1.079h-11.858v-1.618l.462-.099.599-.137.597-.133c.553-.124.553-.124.767-.71.03-.445.043-.892.048-1.339l.01-.846.006-.918.007-.944c.004-.66.006-1.321.009-1.982.004-1.007.016-2.013.028-3.02l.007-1.926.014-.908c-.005-1.685-.093-3.219-1.207-4.568-1.033-.645-2.045-.713-3.234-.539-1.662.676-2.471 1.62-3.234 3.236-.984 3.147-.607 7.1-.691 10.383l-.035 1.305c-.028 1.049-.056 2.097-.082 3.145l.511-.019.668-.015.663-.019c.583.053.583.053 1.122.592v1.079H141.23v-1.618l1.632-.369c.58-.145.58-.145 1.063-.71.317-.901.311-1.787.325-2.736l.016-1.014.014-1.092.017-1.12c.015-.98.028-1.961.041-2.942l.043-3.004c.029-1.964.057-3.928.083-5.891h-3.234v-1.618h8.624l.539 3.236.96-1.146c2.469-2.782 6.708-3.76 10.109-1.924ZM229.357 195.877h9.163l.021 3.581c.009.947.018 1.894.029 2.841.01.997.019 1.995.023 2.992.004.962.013 1.923.026 2.885.006.543.007 1.085.007 1.628.031 1.943.147 3.319 1.242 4.951 1.022.637 1.645.813 2.846.792 1.403-.383 2.242-.954 3.15-2.09 1.049-1.913 1.098-3.681 1.122-5.823l.016-.88c.016-.923.028-1.847.041-2.77l.032-1.884c.025-1.535.048-3.07.069-4.605h-2.964v-1.618h8.893v20.496h2.695c.539.809.539.809.539 1.618-1.223.007-2.446.012-3.67.015-.416.001-.833.003-1.249.006-.597.003-1.195.004-1.792.006l-.568.004c-.448 0-.897-.014-1.345-.031-.488-.488-.372-1.244-.421-1.904l-.069-.903-.049-.699-.278.425c-1.38 1.987-2.966 3.17-5.381 3.621-2.304.199-4.451-.047-6.435-1.298-2.365-2.437-2.583-5.401-2.538-8.65l.004-.967c.004-1.009.014-2.017.024-3.025l.012-2.064c.008-1.678.022-3.355.039-5.032h-3.234v-1.618ZM479.133 197.174c2.219 1.592 3.549 3.685 4.259 6.335.52 3.666.21 7.103-1.851 10.251-1.886 2.491-4.102 4.025-7.204 4.667-3.726.473-6.915-.104-9.976-2.324-2.026-1.605-3.53-4.005-3.976-6.569-.362-3.887-.042-7.209 2.359-10.421 4.159-4.633 11.232-5.109 16.389-1.939Zm-10.696 1.029c-1.673 2.659-1.705 5.555-1.718 8.613l-.017.98c-.011 2.645.049 6.01 1.971 8.038 1.406.993 2.613 1.27 4.312 1.078 1.34-.473 2.21-1.233 2.964-2.427.669-1.422.986-2.843 1.146-4.399l.066-.628c.319-3.51.554-8.197-1.65-11.154-.93-.975-2.037-1.346-3.335-1.618-1.433 0-2.699.566-3.739 1.517ZM133.455 196.763c2.71 1.865 4.203 4.142 4.967 7.316.653 4.041-.332 7.421-2.632 10.71-2.069 2.329-4.939 3.582-8.011 3.796-3.237.049-5.803-.459-8.378-2.482l-.682-.503c-.705-.609-1.146-1.188-1.643-1.974l-.465-.72c-1.051-2.005-1.397-3.818-1.371-6.073l.006-.755c.087-3.57 1.41-5.944 3.952-8.381 3.702-3.19 10.156-3.389 14.257-.934Zm-9.978 1.457c-2.646 4.126-2.306 9.996-1.381 14.647.588 1.766 1.286 2.936 2.964 3.776 1.342.447 2.507.431 3.824-.034 1.753-1.169 2.422-2.557 2.914-4.551.335-1.767.329-3.499.336-5.293l.017-.987c.012-2.675-.13-5.639-1.97-7.744-2.168-1.783-4.666-1.721-6.704.186ZM333.064 197.174c2.391 1.705 3.691 3.957 4.362 6.793.28 2.842.308 5.803-1.078 8.361l-.346.64c-1.65 2.723-3.912 4.343-6.93 5.293-3.46.707-6.88.34-9.921-1.534-2.542-1.871-4.154-4.239-4.797-7.353-.458-3.58-.042-7.026 2.136-9.994 4.105-4.86 11.297-5.45 16.574-2.206Zm-9.921.321c-2.688 2.778-2.568 6.765-2.535 10.412.066 2.691.145 5.533 1.996 7.657 1.262 1.14 2.261 1.466 3.931 1.439 1.146-.16 1.968-.653 2.806-1.439 2.672-3.721 2.215-9.777 1.534-13.996-.393-1.767-1.134-3.25-2.612-4.343-1.75-.67-3.493-.745-5.12.27ZM533.499 196.813c1.567 1.082 2.538 2.357 3.088 4.188.183 1.326.163 2.487-.27 3.759-1.803 1.86-4.468 2.106-6.94 2.221-.886.013-1.771.017-2.657.008-.551-.005-1.102-.005-1.653-.005-2.688-.012-2.688-.012-3.303-.32.579 5.016.579 5.016 3.234 9.17 1.674.823 3.551.853 5.325.313 1.686-.767 2.708-1.846 3.838-3.28.266-.274.534-.545.809-.809l1.078.539c-.472 1.888-1.533 3.427-3.133 4.535-2.914 1.638-6.373 1.786-9.584 1.095-2.926-.833-5.216-2.511-6.771-5.151-1.701-3.542-1.683-7.581-.455-11.266 1.117-2.462 2.879-4.563 5.349-5.721 3.814-1.399 8.493-1.334 12.045.724Zm-9.309.682c-1.819 1.807-2.384 4.494-2.445 6.991l.019.56c.853.062 1.707.116 2.561.169l.724.052c1.777.105 3.467.125 4.935-1.013.771-1.576.623-3.348.068-4.989-.534-1.088-.9-1.748-2.023-2.252-1.431-.468-2.582-.373-3.839.482ZM187.315 194.798v6.742h-1.887l-.12-.542c-.431-1.702-.82-2.544-2.305-3.503-1.676-.559-3.652-.505-5.306.084-.683.444-.683.444-1.162 1.264-.192 1.588-.192 1.588.555 2.971.808.909 1.72 1.37 2.814 1.867l1.152.555.579.275c2.718 1.291 5.222 2.496 6.488 5.39.425 2.051.22 3.856-.707 5.747-1.844 2.088-4.3 2.747-7.013 2.959-2.601.062-5.319-.149-7.641-1.425l-.185.523-.354.556-1.348.27v-8.091h1.887l.12.7c.518 2.712.518 2.712 2.305 4.694 1.76.869 3.491.975 5.39.539.95-.384 1.272-.703 1.87-1.534.302-.941.326-1.564.027-2.512-1.079-2.082-3.505-3.022-5.535-3.91-2.317-1.013-4.412-2.026-5.794-4.231-.471-1.798-.617-3.701.135-5.444 1.095-1.843 2.786-2.673 4.782-3.242 1.231-.27 2.433-.294 3.69-.281l.784.003c1.871.037 3.491.298 5.162 1.194l.269-1.348c.809-.27.809-.27 1.348-.27ZM538.743 184.55h9.702v31.823h3.503c.539.809.539.809.539 1.618h-13.744v-1.618l.492-.031c1.682-.101 1.682-.101 3.011-1.048.245-.767.306-1.47.312-2.273l.008-.72.005-.783.008-.829c.009-.905.015-1.81.022-2.714l.017-1.882c.015-1.651.028-3.302.041-4.953l.044-5.055c.029-3.306.056-6.611.082-9.917h-4.042v-1.618ZM277.163 196.801c1.015.706 1.89 1.396 2.321 2.582.196 1.35.205 2.343-.489 3.539-1.225.721-2.438.845-3.823.506-1.243-.946-1.617-1.922-1.921-3.405-.279-1.616-.279-1.616-1.313-2.798-1.166-.351-2.169-.357-3.319.034-1.903 1.329-2.352 3.2-2.88 5.36a19.508 19.508 0 0 0-.269 2.697l-.033.693c-.078 3.154.094 6.763 2.338 9.201 1.413 1.238 2.743 1.291 4.551 1.271 1.898-.213 3.491-.994 4.814-2.374.455-.578.874-1.158 1.266-1.779l1.617.269c-.443 1.97-1.792 3.406-3.42 4.535-2.967 1.686-6.58 1.801-9.853 1.095-2.954-.849-5.083-2.525-6.755-5.094-1.678-3.235-1.472-7.327-.512-10.724.958-2.695 2.667-4.651 5.178-5.993l.615-.338c3.536-1.607 8.59-1.245 11.887.723ZM226.963 195.801c.913.564 1.341 1.206 1.585 2.233.182 1.427-.211 2.114-1.078 3.236-.668.669-.912.627-1.836.641-.935-.022-1.343-.07-2.173-.539-.635-.711-1.152-1.447-1.65-2.259-1.149.027-1.536.185-2.342 1.028-1.922 3.092-1.578 7.009-1.617 10.501l-.028 1.671c-.022 1.353-.04 2.707-.056 4.06l.924-.019 1.198-.015.61-.013c.527-.005 1.054.019 1.58.047.539.539.539.539.539 1.618h-14.014v-1.618l.512-.08.667-.122.663-.114c.609-.169.609-.169.884-.67.304-.806.314-1.477.324-2.339l.017-1.047.009-1.127.016-1.156c.014-1.013.024-2.026.034-3.038a2472.946 2472.946 0 0 0 .108-9.185h-3.234v-1.618h8.624c.27.811.351 1.493.421 2.343l.069.812.049.62.259-.415c1.948-2.876 5.463-4.616 8.936-3.436ZM199.981 190.213v5.933h7.007v1.618h-7.007c.017 2.192.038 4.384.064 6.576.012 1.018.023 2.036.03 3.054.007.983.018 1.966.031 2.948.005.375.008.749.01 1.124.002.525.01 1.051.018 1.576l.009.906c.132.987.477 1.716 1.186 2.425 1.09.126 1.678.144 2.594-.489.882-1.184 1.428-2.465 1.987-3.826l1.617.27c-.328 2.115-.996 3.717-2.543 5.225-1.744 1.107-3.522 1.191-5.542.978-1.557-.454-3.191-1.227-4.074-2.639-1.224-2.322-1.392-4.34-1.368-6.934l.002-.972c.003-1.019.01-2.039.017-3.058l.007-2.079c.006-1.695.015-3.39.026-5.085h-3.503v-1.618h3.503v-4.854c4.266-1.079 4.266-1.079 5.929-1.079ZM290.264 190.213v5.933h7.007v1.618h-7.007c.017 2.153.037 4.305.063 6.457.012.999.023 1.999.03 2.998.007.966.018 1.931.031 2.896.005.367.008.735.01 1.102.002.517.01 1.033.019 1.55l.009.889c.131 1.01.447 1.979 1.185 2.717 1.117.129 1.685.146 2.611-.523.659-.873 1.06-1.703 1.46-2.716.241-.537.241-.537.78-1.076.708.101.708.101 1.348.27-.424 2.243-.943 3.804-2.719 5.313-1.663 1.128-3.424 1.076-5.366.89-1.827-.495-3.171-1.405-4.144-3.057-1.221-2.315-1.285-4.332-1.273-6.911l.001-.937.009-2.951.003-2.005c.003-1.635.008-3.27.014-4.906h-3.504v-1.618h3.504v-4.854c4.218-1.079 4.218-1.079 5.929-1.079ZM554.643 195.877h9.163v20.496h2.695c.539.539.539.539.539 1.618h-12.397v-1.618l.512-.089.667-.13.663-.123c.68-.164.68-.164 1.123-1.006.089-.791.088-.791.086-1.701l.016-1.064.009-1.149.016-1.176c.014-1.03.025-2.061.035-3.092.01-1.052.024-2.104.038-3.156.026-2.064.048-4.128.069-6.192h-3.234v-1.618ZM299.157 195.877h9.163v20.496h2.695c.539.539.539.539.539 1.618h-12.397v-1.618l.512-.089.667-.13.664-.123c.679-.164.679-.164 1.122-1.006.089-.791.089-.791.086-1.701l.016-1.064.009-1.149.016-1.176c.014-1.03.025-2.061.035-3.092.011-1.052.024-2.104.038-3.156.026-2.064.048-4.128.069-6.192h-3.234v-1.618ZM562.728 185.898c.717.61 1.196 1.314 1.617 2.158.126 1.635-.162 2.724-1.213 3.994-.901.714-1.926.681-3.022.665-.976-.118-1.513-.501-2.233-1.153-.834-1.158-.925-2.087-.71-3.457.296-1.017.732-1.49 1.519-2.207 1.36-.742 2.649-.595 4.042 0ZM307.242 185.898c.716.61 1.196 1.314 1.617 2.158.126 1.635-.162 2.724-1.213 3.994-.901.714-1.926.681-3.022.665-.976-.118-1.513-.501-2.233-1.153-.834-1.158-.925-2.087-.71-3.457.296-1.017.732-1.49 1.519-2.207 1.36-.742 2.649-.595 4.042 0Z"/></svg>